<mxfile host="app.diagrams.net" agent="Mozilla/5.0 (Linux; Android 10; K) AppleWebKit/537.36 (KHTML, like Gecko) Chrome/129.0.0.0 Mobile Safari/537.36" version="24.7.16">
  <diagram name="PÃ¡gina-1" id="cFBxgf9zkDKuU96j1BGt">
    <mxGraphModel>
      <root>
        <mxCell id="0" />
        <mxCell id="1" parent="0" />
        <mxCell id="2" value="" style="ellipse;fillColor=strokeColor;" vertex="1" parent="1">
          <mxGeometry x="199" y="8" width="14" height="14" as="geometry" />
        </mxCell>
        <mxCell id="3" value="Apagado" style="rounded=1;arcSize=40;strokeWidth=2" vertex="1" parent="1">
          <mxGeometry x="166" y="72" width="80" height="35" as="geometry" />
        </mxCell>
        <mxCell id="4" value="Encendido" style="rounded=1;arcSize=40;strokeWidth=2" vertex="1" parent="1">
          <mxGeometry x="249" y="180" width="90" height="35" as="geometry" />
        </mxCell>
        <mxCell id="5" value="" style="whiteSpace=wrap;strokeWidth=2;" vertex="1" parent="1">
          <mxGeometry x="83" y="197" as="geometry" />
        </mxCell>
        <mxCell id="6" value="" style="whiteSpace=wrap;strokeWidth=2;" vertex="1" parent="1">
          <mxGeometry x="131" y="288" as="geometry" />
        </mxCell>
        <mxCell id="7" value="" style="whiteSpace=wrap;strokeWidth=2;" vertex="1" parent="1">
          <mxGeometry x="244" y="288" as="geometry" />
        </mxCell>
        <mxCell id="8" value="" style="whiteSpace=wrap;strokeWidth=2;" vertex="1" parent="1">
          <mxGeometry x="294" y="361" as="geometry" />
        </mxCell>
        <mxCell id="9" value="" style="curved=1;startArrow=none;;exitX=0.51;exitY=1;entryX=0.5;entryY=0;" edge="1" parent="1" source="2" target="3">
          <mxGeometry relative="1" as="geometry">
            <Array as="points" />
          </mxGeometry>
        </mxCell>
        <mxCell id="10" value="Encender" style="curved=1;startArrow=none;;exitX=0.66;exitY=1;entryX=0.33;entryY=-0.01;" edge="1" parent="1" source="3" target="4">
          <mxGeometry relative="1" as="geometry">
            <Array as="points">
              <mxPoint x="246" y="143" />
            </Array>
          </mxGeometry>
        </mxCell>
        <mxCell id="11" value="Apagar" style="curved=1;startArrow=none;;exitX=0.65;exitY=-0.01;entryX=1;entryY=0.97;" edge="1" parent="1" source="4" target="3">
          <mxGeometry relative="1" as="geometry">
            <Array as="points">
              <mxPoint x="335" y="143" />
            </Array>
          </mxGeometry>
        </mxCell>
        <mxCell id="12" value="" style="curved=1;startArrow=none;endArrow=none;exitX=0;exitY=1;entryX=Infinity;entryY=Infinity;" edge="1" parent="1" source="3" target="5">
          <mxGeometry relative="1" as="geometry">
            <Array as="points">
              <mxPoint x="83" y="143" />
            </Array>
          </mxGeometry>
        </mxCell>
        <mxCell id="13" value="Permanece apagado" style="curved=1;startArrow=none;endArrow=none;exitX=Infinity;exitY=Infinity;entryX=-Infinity;entryY=-Infinity;" edge="1" parent="1" source="5" target="6">
          <mxGeometry relative="1" as="geometry">
            <Array as="points">
              <mxPoint x="83" y="251" />
            </Array>
          </mxGeometry>
        </mxCell>
        <mxCell id="14" value="" style="curved=1;startArrow=none;;exitX=-Infinity;exitY=-Infinity;entryX=0.39;entryY=1;" edge="1" parent="1" source="6" target="3">
          <mxGeometry relative="1" as="geometry">
            <Array as="points">
              <mxPoint x="179" y="251" />
              <mxPoint x="179" y="143" />
            </Array>
          </mxGeometry>
        </mxCell>
        <mxCell id="15" value="" style="curved=1;startArrow=none;endArrow=none;exitX=0.32;exitY=0.99;entryX=-Infinity;entryY=-Infinity;" edge="1" parent="1" source="4" target="7">
          <mxGeometry relative="1" as="geometry">
            <Array as="points">
              <mxPoint x="244" y="251" />
            </Array>
          </mxGeometry>
        </mxCell>
        <mxCell id="16" value="Permanece encendido" style="curved=1;startArrow=none;endArrow=none;exitX=-Infinity;exitY=-Infinity;entryX=-Infinity;entryY=-Infinity;" edge="1" parent="1" source="7" target="8">
          <mxGeometry relative="1" as="geometry">
            <Array as="points">
              <mxPoint x="244" y="324" />
            </Array>
          </mxGeometry>
        </mxCell>
        <mxCell id="17" value="" style="curved=1;startArrow=none;;exitX=Infinity;exitY=-Infinity;entryX=0.68;entryY=0.99;" edge="1" parent="1" source="8" target="4">
          <mxGeometry relative="1" as="geometry">
            <Array as="points">
              <mxPoint x="344" y="324" />
              <mxPoint x="344" y="251" />
            </Array>
          </mxGeometry>
        </mxCell>
      </root>
    </mxGraphModel>
  </diagram>
</mxfile>
